<svg width="64" height="64" xmlns="http://www.w3.org/2000/svg">
  <!-- Background Circle -->
  <circle cx="32" cy="32" r="30" fill="#0A7EBB"/>

  <!-- AI Brain Symbol -->
  <path d="M21 26c-2 0-3 1-3 3v6c0 2 1 3 3 3h2v2c0 1 1 2 2 2h10c1 0 2-1 2-2v-2h2c2 0 3-1 3-3v-6c0-2-1-3-3-3h-2v-2c0-1-1-2-2-2H25c-1 0-2 1-2 2v2h-2z" fill="#FFFFFF" stroke="#FFFFFF" stroke-width="1"/>

  <!-- Code Symbol (Brackets) -->
  <path d="M15 30l-3 2v4l3 2V30zm34 0v8l3-2v-4l-3-2z" fill="#FFFFFF"/>

  <!-- VS Code Badge (Corner) -->
  <rect x="48" y="48" width="12" height="12" fill="#007ACC" rx="2" ry="2"/>
  <text x="52" y="56" font-family="Arial, sans-serif" font-size="8" fill="#FFFFFF">VS</text>

  <!-- Highlight Glow -->
  <circle cx="32" cy="32" r="28" fill="none" stroke="#FFFFFF" stroke-opacity="0.3" stroke-width="3"/>

</svg>
